<svg xmlns="http://www.w3.org/2000/svg" width="596" height="365" viewBox="0 0 596 365" fill="none"><title>GitKon 2022 | Presented by GitKraken</title><desc>Creating a Collaborative Future: October 11 – 13, 2022 at 9:00am PDT – 12:00pm PDT daily.</desc><path fill-rule="evenodd" clip-rule="evenodd" d="M30.0522 11.8333C36.5091 8.05555 43.4669 6.16667 50.9258 6.16667C63.7282 6.16667 73.8589 10.0556 81.3177 17.8333C84.3235 21.0556 86.7727 24.6667 88.6652 28.6667C90.6691 32.6667 91.7267 36.7222 91.838 40.8333H97.8496C97.8496 36.0556 96.7364 31.3333 94.5098 26.6667C92.3947 22 89.6115 17.7778 86.1604 14C81.93 9.44444 76.809 6 70.7974 3.66667C64.7858 1.22222 58.162 0 50.9258 0C42.2424 0 34.2269 2.16666 26.8794 6.5C19.5319 10.7222 13.6873 16.5 9.34557 23.8333C5.11519 31.1667 3 39.1667 3 47.8333V69.8333C3 78.3889 4.33591 85.7778 7.00773 92C10.6815 100.778 16.4704 107.833 24.3746 113.167C32.39 118.389 41.2404 121 50.9258 121C61.1678 121 70.3521 118.222 78.4789 112.667C86.6057 107.111 92.3946 99.7222 95.8457 90.5C97.9609 84.9444 99.0185 78.6111 99.0185 71.5V60.5H48.087V114.667C40.1828 114.111 33.058 111.556 26.7124 107C20.3668 102.444 15.6355 96.5556 12.5184 89.3333C10.2918 84.2222 9.17859 77.7222 9.17859 69.8333V47.8333C9.17859 40.2778 11.0711 33.3333 14.8562 27C18.6413 20.5556 23.7066 15.5 30.0522 11.8333ZM54.0986 66.5H92.84V71.5C92.84 78.0555 91.838 83.9445 89.8342 89.1667C86.8284 96.6111 82.097 102.611 75.6401 107.167C69.2945 111.611 62.114 114.111 54.0986 114.667V66.5ZM188.063 8.66667V2.5H112.751V8.66667H147.317V112.333H112.751V118.5H188.063V112.333H153.329V8.66667H188.063ZM295.81 2.5V8.66667H251.892V118.5H245.88V8.66667H201.962V2.5H295.81ZM397.545 118.5L349.118 50.8333L397.545 2.5H304.031V118.5H397.545ZM310.21 89.6667L344.776 55.1667L385.689 112.333H310.21V89.6667ZM446.011 0C454.694 0 462.71 2.16666 470.057 6.5C477.405 10.7222 483.194 16.5 487.424 23.8333C491.766 31.1667 493.937 39.1667 493.937 47.8333V73.1667C493.937 81.8333 491.766 89.8333 487.424 97.1667C483.194 104.5 477.405 110.333 470.057 114.667C462.71 118.889 454.694 121 446.011 121C437.327 121 429.312 118.889 421.964 114.667C414.617 110.333 408.772 104.5 404.431 97.1667C400.2 89.8333 398.085 81.8333 398.085 73.1667V47.8333C398.085 39.1667 400.2 31.1667 404.431 23.8333C408.772 16.5 414.617 10.7222 421.964 6.5C429.312 2.16666 437.327 0 446.011 0ZM404.264 73.1667C404.264 80.7222 406.1 87.7222 409.774 94.1667C413.559 100.5 418.625 105.556 424.97 109.333C431.427 113 438.441 114.833 446.011 114.833C453.581 114.833 460.539 113 466.884 109.333C473.341 105.556 478.407 100.5 482.08 94.1667C485.865 87.7222 487.758 80.7222 487.758 73.1667V47.8333C487.758 40.2778 485.865 33.3333 482.08 27C478.407 20.5556 473.341 15.5 466.884 11.8333C460.539 8.05555 453.581 6.16667 446.011 6.16667C438.441 6.16667 431.427 8.05555 424.97 11.8333C418.625 15.5 413.559 20.5556 409.774 27C406.1 33.3333 404.264 40.2778 404.264 47.8333V73.1667ZM505.665 2.5H499.152V118.5H505.331V10.5L586.821 89.8333V118.5H593V2.5H586.821V81.1667L505.665 2.5ZM139.725 360.165V348.24H16.1719L101.236 255.413L105.117 251.223C114.605 240.909 122.044 231.562 127.435 223.182C132.825 214.802 135.52 205.24 135.52 194.496C135.52 182.463 132.502 171.612 126.464 161.942C120.642 152.273 112.556 144.752 102.206 139.38C92.072 133.793 80.6439 131 67.922 131C55.6313 131 44.311 134.008 33.961 140.025C23.8266 146.041 15.7406 154.207 9.70314 164.521C3.66563 174.62 0.646873 185.793 0.646873 198.041H12.6141C12.6141 187.942 15.0938 178.702 20.0531 170.322C25.0125 161.727 31.6969 154.959 40.1063 150.017C48.7313 145.074 58.0032 142.603 67.922 142.603C78.272 142.603 87.6517 144.859 96.0611 149.372C104.686 153.884 111.37 160.116 116.114 168.066C121.074 176.017 123.553 184.826 123.553 194.496C123.553 203.091 121.181 211.149 116.438 218.669C111.694 225.975 105.01 234.14 96.3845 243.165L92.5032 247.355L48.5157 295.058L0 348.24V360.165H139.725ZM287.612 327.289C294.512 315.686 297.962 303.008 297.962 289.256V207.066C297.962 193.314 294.512 180.636 287.612 169.033C280.928 157.43 271.764 148.298 260.12 141.636C248.476 134.76 235.754 131.322 221.954 131.322C208.154 131.322 195.432 134.76 183.789 141.636C172.145 148.298 162.873 157.43 155.973 169.033C149.288 180.636 145.946 193.314 145.946 207.066V289.256C145.946 303.008 149.288 315.686 155.973 327.289C162.873 338.893 172.145 348.132 183.789 355.008C195.432 361.669 208.154 365 221.954 365C235.754 365 248.476 361.669 260.12 355.008C271.764 348.132 280.928 338.893 287.612 327.289ZM161.795 311.818C158.992 304.083 157.59 296.562 157.59 289.256V207.066C157.59 195.463 160.501 184.826 166.323 175.157C172.145 165.273 179.907 157.537 189.61 151.95C199.529 146.149 210.31 143.248 221.954 143.248C233.167 143.248 243.517 145.934 253.004 151.306C262.492 156.678 270.146 163.876 275.968 172.901L161.795 311.818ZM282.114 184.504C284.917 192.24 286.318 199.76 286.318 207.066V289.256C286.318 300.859 283.407 311.603 277.586 321.488C271.764 331.157 263.893 338.893 253.975 344.694C244.271 350.496 233.598 353.397 221.954 353.397C210.742 353.397 200.392 350.711 190.904 345.339C181.417 339.967 173.762 332.661 167.94 323.421L282.114 184.504ZM443.908 348.24V360.165H304.183V348.24L352.699 295.058L396.686 247.355L400.568 243.165C409.193 234.14 415.877 225.975 420.621 218.669C425.365 211.149 427.737 203.091 427.737 194.496C427.737 184.826 425.257 176.017 420.297 168.066C415.554 160.116 408.869 153.884 400.244 149.372C391.835 144.859 382.455 142.603 372.105 142.603C362.186 142.603 352.915 145.074 344.29 150.017C335.88 154.959 329.196 161.727 324.236 170.322C319.277 178.702 316.797 187.942 316.797 198.041H304.83C304.83 185.793 307.849 174.62 313.886 164.521C319.924 154.207 328.01 146.041 338.144 140.025C348.494 134.008 359.815 131 372.105 131C384.827 131 396.255 133.793 406.39 139.38C416.74 144.752 424.826 152.273 430.647 161.942C436.685 171.612 439.704 182.463 439.704 194.496C439.704 205.24 437.008 214.802 431.618 223.182C426.227 231.562 418.788 240.909 409.301 251.223L405.419 255.413L320.355 348.24H443.908ZM596 360.165V348.24H472.447L557.511 255.413L561.392 251.223C570.88 240.909 578.319 231.562 583.709 223.182C589.1 214.802 591.795 205.24 591.795 194.496C591.795 182.463 588.777 171.612 582.739 161.942C576.917 152.273 568.831 144.752 558.481 139.38C548.347 133.793 536.919 131 524.197 131C511.906 131 500.586 134.008 490.236 140.025C480.101 146.041 472.015 154.207 465.978 164.521C459.94 174.62 456.922 185.793 456.922 198.041H468.889C468.889 187.942 471.369 178.702 476.328 170.322C481.287 161.727 487.972 154.959 496.381 150.017C505.006 145.074 514.278 142.603 524.197 142.603C534.547 142.603 543.927 144.859 552.336 149.372C560.961 153.884 567.645 160.116 572.389 168.066C577.348 176.017 579.828 184.826 579.828 194.496C579.828 203.091 577.456 211.149 572.713 218.669C567.969 225.975 561.284 234.14 552.659 243.165L548.778 247.355L504.791 295.058L456.275 348.24V360.165H596Z" fill="url(#paint0_linear_409_72711)"></path><path fill-rule="evenodd" clip-rule="evenodd" d="M30.0522 11.8333C36.5091 8.05555 43.4669 6.16667 50.9258 6.16667C63.7282 6.16667 73.8589 10.0556 81.3177 17.8333C84.3235 21.0556 86.7727 24.6667 88.6652 28.6667C90.6691 32.6667 91.7267 36.7222 91.838 40.8333H97.8496C97.8496 36.0556 96.7364 31.3333 94.5098 26.6667C92.3947 22 89.6115 17.7778 86.1604 14C81.93 9.44444 76.809 6 70.7974 3.66667C64.7858 1.22222 58.162 0 50.9258 0C42.2424 0 34.2269 2.16666 26.8794 6.5C19.5319 10.7222 13.6873 16.5 9.34557 23.8333C5.11519 31.1667 3 39.1667 3 47.8333V69.8333C3 78.3889 4.33591 85.7778 7.00773 92C10.6815 100.778 16.4704 107.833 24.3746 113.167C32.39 118.389 41.2404 121 50.9258 121C61.1678 121 70.3521 118.222 78.4789 112.667C86.6057 107.111 92.3946 99.7222 95.8457 90.5C97.9609 84.9444 99.0185 78.6111 99.0185 71.5V60.5H48.087V114.667C40.1828 114.111 33.058 111.556 26.7124 107C20.3668 102.444 15.6355 96.5556 12.5184 89.3333C10.2918 84.2222 9.17859 77.7222 9.17859 69.8333V47.8333C9.17859 40.2778 11.0711 33.3333 14.8562 27C18.6413 20.5556 23.7066 15.5 30.0522 11.8333ZM54.0986 66.5H92.84V71.5C92.84 78.0555 91.838 83.9445 89.8342 89.1667C86.8284 96.6111 82.097 102.611 75.6401 107.167C69.2945 111.611 62.114 114.111 54.0986 114.667V66.5ZM188.063 8.66667V2.5H112.751V8.66667H147.317V112.333H112.751V118.5H188.063V112.333H153.329V8.66667H188.063ZM295.81 2.5V8.66667H251.892V118.5H245.88V8.66667H201.962V2.5H295.81ZM397.545 118.5L349.118 50.8333L397.545 2.5H304.031V118.5H397.545ZM310.21 89.6667L344.776 55.1667L385.689 112.333H310.21V89.6667ZM446.011 0C454.694 0 462.71 2.16666 470.057 6.5C477.405 10.7222 483.194 16.5 487.424 23.8333C491.766 31.1667 493.937 39.1667 493.937 47.8333V73.1667C493.937 81.8333 491.766 89.8333 487.424 97.1667C483.194 104.5 477.405 110.333 470.057 114.667C462.71 118.889 454.694 121 446.011 121C437.327 121 429.312 118.889 421.964 114.667C414.617 110.333 408.772 104.5 404.431 97.1667C400.2 89.8333 398.085 81.8333 398.085 73.1667V47.8333C398.085 39.1667 400.2 31.1667 404.431 23.8333C408.772 16.5 414.617 10.7222 421.964 6.5C429.312 2.16666 437.327 0 446.011 0ZM404.264 73.1667C404.264 80.7222 406.1 87.7222 409.774 94.1667C413.559 100.5 418.625 105.556 424.97 109.333C431.427 113 438.441 114.833 446.011 114.833C453.581 114.833 460.539 113 466.884 109.333C473.341 105.556 478.407 100.5 482.08 94.1667C485.865 87.7222 487.758 80.7222 487.758 73.1667V47.8333C487.758 40.2778 485.865 33.3333 482.08 27C478.407 20.5556 473.341 15.5 466.884 11.8333C460.539 8.05555 453.581 6.16667 446.011 6.16667C438.441 6.16667 431.427 8.05555 424.97 11.8333C418.625 15.5 413.559 20.5556 409.774 27C406.1 33.3333 404.264 40.2778 404.264 47.8333V73.1667ZM505.665 2.5H499.152V118.5H505.331V10.5L586.821 89.8333V118.5H593V2.5H586.821V81.1667L505.665 2.5ZM139.725 360.165V348.24H16.1719L101.236 255.413L105.117 251.223C114.605 240.909 122.044 231.562 127.435 223.182C132.825 214.802 135.52 205.24 135.52 194.496C135.52 182.463 132.502 171.612 126.464 161.942C120.642 152.273 112.556 144.752 102.206 139.38C92.072 133.793 80.6439 131 67.922 131C55.6313 131 44.311 134.008 33.961 140.025C23.8266 146.041 15.7406 154.207 9.70314 164.521C3.66563 174.62 0.646873 185.793 0.646873 198.041H12.6141C12.6141 187.942 15.0938 178.702 20.0531 170.322C25.0125 161.727 31.6969 154.959 40.1063 150.017C48.7313 145.074 58.0032 142.603 67.922 142.603C78.272 142.603 87.6517 144.859 96.0611 149.372C104.686 153.884 111.37 160.116 116.114 168.066C121.074 176.017 123.553 184.826 123.553 194.496C123.553 203.091 121.181 211.149 116.438 218.669C111.694 225.975 105.01 234.14 96.3845 243.165L92.5032 247.355L48.5157 295.058L0 348.24V360.165H139.725ZM287.612 327.289C294.512 315.686 297.962 303.008 297.962 289.256V207.066C297.962 193.314 294.512 180.636 287.612 169.033C280.928 157.43 271.764 148.298 260.12 141.636C248.476 134.76 235.754 131.322 221.954 131.322C208.154 131.322 195.432 134.76 183.789 141.636C172.145 148.298 162.873 157.43 155.973 169.033C149.288 180.636 145.946 193.314 145.946 207.066V289.256C145.946 303.008 149.288 315.686 155.973 327.289C162.873 338.893 172.145 348.132 183.789 355.008C195.432 361.669 208.154 365 221.954 365C235.754 365 248.476 361.669 260.12 355.008C271.764 348.132 280.928 338.893 287.612 327.289ZM161.795 311.818C158.992 304.083 157.59 296.562 157.59 289.256V207.066C157.59 195.463 160.501 184.826 166.323 175.157C172.145 165.273 179.907 157.537 189.61 151.95C199.529 146.149 210.31 143.248 221.954 143.248C233.167 143.248 243.517 145.934 253.004 151.306C262.492 156.678 270.146 163.876 275.968 172.901L161.795 311.818ZM282.114 184.504C284.917 192.24 286.318 199.76 286.318 207.066V289.256C286.318 300.859 283.407 311.603 277.586 321.488C271.764 331.157 263.893 338.893 253.975 344.694C244.271 350.496 233.598 353.397 221.954 353.397C210.742 353.397 200.392 350.711 190.904 345.339C181.417 339.967 173.762 332.661 167.94 323.421L282.114 184.504ZM443.908 348.24V360.165H304.183V348.24L352.699 295.058L396.686 247.355L400.568 243.165C409.193 234.14 415.877 225.975 420.621 218.669C425.365 211.149 427.737 203.091 427.737 194.496C427.737 184.826 425.257 176.017 420.297 168.066C415.554 160.116 408.869 153.884 400.244 149.372C391.835 144.859 382.455 142.603 372.105 142.603C362.186 142.603 352.915 145.074 344.29 150.017C335.88 154.959 329.196 161.727 324.236 170.322C319.277 178.702 316.797 187.942 316.797 198.041H304.83C304.83 185.793 307.849 174.62 313.886 164.521C319.924 154.207 328.01 146.041 338.144 140.025C348.494 134.008 359.815 131 372.105 131C384.827 131 396.255 133.793 406.39 139.38C416.74 144.752 424.826 152.273 430.647 161.942C436.685 171.612 439.704 182.463 439.704 194.496C439.704 205.24 437.008 214.802 431.618 223.182C426.227 231.562 418.788 240.909 409.301 251.223L405.419 255.413L320.355 348.24H443.908ZM596 360.165V348.24H472.447L557.511 255.413L561.392 251.223C570.88 240.909 578.319 231.562 583.709 223.182C589.1 214.802 591.795 205.24 591.795 194.496C591.795 182.463 588.777 171.612 582.739 161.942C576.917 152.273 568.831 144.752 558.481 139.38C548.347 133.793 536.919 131 524.197 131C511.906 131 500.586 134.008 490.236 140.025C480.101 146.041 472.015 154.207 465.978 164.521C459.94 174.62 456.922 185.793 456.922 198.041H468.889C468.889 187.942 471.369 178.702 476.328 170.322C481.287 161.727 487.972 154.959 496.381 150.017C505.006 145.074 514.278 142.603 524.197 142.603C534.547 142.603 543.927 144.859 552.336 149.372C560.961 153.884 567.645 160.116 572.389 168.066C577.348 176.017 579.828 184.826 579.828 194.496C579.828 203.091 577.456 211.149 572.713 218.669C567.969 225.975 561.284 234.14 552.659 243.165L548.778 247.355L504.791 295.058L456.275 348.24V360.165H596Z" fill="white" fill-opacity="0.56"></path><defs><linearGradient id="paint0_linear_409_72711" x1="55.5" y1="67.5" x2="270.034" y2="497.068" gradientUnits="userSpaceOnUse"><stop stop-color="#E0C86C"></stop><stop offset="0.546875" stop-color="#C427FF"></stop><stop offset="1" stop-color="#4712EC"></stop></linearGradient></defs></svg>