<?xml version="1.0" encoding="utf-8"?>
<!-- Generator: Adobe Illustrator 21.0.2, SVG Export Plug-In . SVG Version: 6.00 Build 0)  -->
<svg version="1.1" id="Layer_1" xmlns="http://www.w3.org/2000/svg" xmlns:xlink="http://www.w3.org/1999/xlink" x="0px" y="0px"
	 viewBox="0 0 600 600" style="enable-background:new 0 0 600 600;" xml:space="preserve">
<style type="text/css">
	.st0{fill:#5D5D5D;}
	.st1{clip-path:url(#SVGID_2_);fill-rule:evenodd;clip-rule:evenodd;fill:#574751;}
	.st2{clip-path:url(#SVGID_4_);fill-rule:evenodd;clip-rule:evenodd;fill:#574751;}
	.st3{clip-path:url(#SVGID_6_);fill-rule:evenodd;clip-rule:evenodd;fill:#574751;}
	.st4{clip-path:url(#SVGID_8_);fill-rule:evenodd;clip-rule:evenodd;fill:#574751;}
	.st5{clip-path:url(#SVGID_10_);fill-rule:evenodd;clip-rule:evenodd;fill:#574751;}
	.st6{clip-path:url(#SVGID_12_);fill-rule:evenodd;clip-rule:evenodd;fill:#574751;}
	.st7{fill:#FFCE32;}
	.st8{opacity:0.5;}
	.st9{fill:#FAAB3C;}
	.st10{fill:#EC6623;}
	.st11{opacity:0.7;}
	.st12{opacity:0.7;fill:#FAAB3C;}
	.st13{opacity:0.5;fill:#FAAB3C;}
	.st14{fill:#ED6724;}
	.st15{clip-path:url(#SVGID_14_);fill-rule:evenodd;clip-rule:evenodd;fill:#574751;}
	.st16{clip-path:url(#SVGID_16_);fill-rule:evenodd;clip-rule:evenodd;fill:#574751;}
	.st17{clip-path:url(#SVGID_18_);fill-rule:evenodd;clip-rule:evenodd;fill:#574751;}
	.st18{clip-path:url(#SVGID_20_);fill-rule:evenodd;clip-rule:evenodd;fill:#574751;}
	.st19{clip-path:url(#SVGID_22_);fill-rule:evenodd;clip-rule:evenodd;fill:#574751;}
	.st20{clip-path:url(#SVGID_24_);fill-rule:evenodd;clip-rule:evenodd;fill:#574751;}
	.st21{display:none;fill:#FFCE32;}
	.st22{fill:#FCBD38;}
	.st23{fill:#F7941E;}
	.st24{clip-path:url(#SVGID_26_);fill-rule:evenodd;clip-rule:evenodd;fill:#FFFFFF;}
	.st25{clip-path:url(#SVGID_28_);fill-rule:evenodd;clip-rule:evenodd;fill:#FFFFFF;}
	.st26{clip-path:url(#SVGID_30_);fill-rule:evenodd;clip-rule:evenodd;fill:#FFFFFF;}
	.st27{clip-path:url(#SVGID_32_);fill-rule:evenodd;clip-rule:evenodd;fill:#FFFFFF;}
	.st28{clip-path:url(#SVGID_34_);fill-rule:evenodd;clip-rule:evenodd;fill:#FFFFFF;}
	.st29{clip-path:url(#SVGID_36_);fill-rule:evenodd;clip-rule:evenodd;fill:#FFFFFF;}
	.st30{fill:#FFFFFF;}
	.st31{fill:#ED6724;stroke:#ED6724;stroke-width:9;stroke-miterlimit:10;}
	.st32{fill:none;stroke:#ED6724;stroke-miterlimit:10;}
	.st33{clip-path:url(#SVGID_38_);fill:#FDBD39;}
	.st34{clip-path:url(#SVGID_40_);fill:#F69833;}
	.st35{clip-path:url(#SVGID_42_);fill:#FFCB03;}
	.st36{clip-path:url(#SVGID_44_);fill:#EE6723;}
	.st37{clip-path:url(#SVGID_46_);fill:#F69833;}
	.st38{clip-path:url(#SVGID_48_);fill:#FDBD39;}
	.st39{clip-path:url(#SVGID_50_);fill:#EE6723;}
	.st40{clip-path:url(#SVGID_52_);fill:#EE6723;}
	
		.st41{fill:none;stroke:#FFCB03;stroke-width:24;stroke-linecap:round;stroke-linejoin:round;stroke-miterlimit:10;stroke-dasharray:43,66;}
</style>
<path class="st21" d="M176.1,366.2L70.6,404.6L69,493.9l161.2-58.7C203.6,414.2,186,393.3,176.1,366.2z"/>
<path class="st22" d="M176.1,366.2L70.6,404.6L69,493.9l161.2-58.7C203.6,414.2,186,393.3,176.1,366.2z"/>
<path class="st23" d="M12,337.2l58.6,67.4l105.5-38.4c-11-30.1-12.3-60.3-4.4-87.1L12,337.2z"/>
<path class="st7" d="M292.5,170.3c-133.1,48.5-219,148.4-191.7,223.3l482.1-175.5C555.6,143.3,425.6,121.8,292.5,170.3z"/>
<path class="st10" d="M391.2,441.5c133.1-48.5,219.1-148,191.7-223.3L100.8,393.6C128.2,468.9,258.1,489.9,391.2,441.5z"/>
<path class="st12" d="M374.7,396.3c133.1-48.5,226.8-126.9,208.2-178.1L100.8,393.6C119.4,444.8,241.6,444.7,374.7,396.3z"/>
<path class="st22" d="M308.9,215.5C175.8,263.9,82.1,342.4,100.8,393.6l482.1-175.5C564.3,166.9,442.1,167,308.9,215.5z"/>
<path class="st14" d="M460.3,498.6L460.3,498.6c-14.2,0-35.1-12.8-62.2-37.9c-32-29.8-68.8-73.4-103.4-122.8
	c-34.6-49.4-63.1-98.8-80.1-139.1c-18.6-43.9-21.2-70.9-7.9-80.3c2.9-2,6.4-3.1,10.5-3.1c10.8,0,32,8,71.1,46.4l0.9,0.8l-0.1,1.2
	c-0.3,2.8-0.5,5.5-0.7,8.3l-0.4,5.4l-3.8-3.8c-42.1-42.3-60.7-46.8-66.7-46.8c-1.7,0-3.1,0.3-4.1,1c-5.8,4-6.2,23.9,11.8,66.5
	c16.7,39.6,44.8,88.3,78.9,137c34.2,48.8,70.3,91.8,101.8,121c33.9,31.5,49.2,35,54.2,35c1.7,0,3.1-0.4,4.2-1.1
	c6.1-4.3,6.1-25.5-14-71.3l-0.9-2.1l2-1.1c2-1.1,4-2.2,5.8-3.2l2.4-1.4l1.1,2.5c14.2,32.5,27.5,73.7,10.1,86
	C467.9,497.6,464.4,498.6,460.3,498.6z M460.3,493.6L460.3,493.6l0,2.5"/>
<path class="st14" d="M394.4,440.1l-0.2,2.5c-3.4,41.5-12.2,91.4-35.3,93.4c-0.5,0-0.9,0.1-1.4,0.1c-15.7,0-30.5-22.4-44.1-66.6
	c-12.9-41.8-22.8-97.9-28.1-158.1c-5.3-60.1-5.2-117.1,0.2-160.5c5.9-47.3,17.1-72,33.3-73.4c0.5,0,1-0.1,1.5-0.1
	c11.4,0,28.5,12.8,46.1,72.7l-11.5,2.2c-5.9-20-12.3-36.3-18.6-47.4c-5.9-10.3-11.6-16-16.1-16c-0.1,0-0.3,0-0.4,0
	c-7,0.6-17.3,17.6-23,63.5c-5.3,42.6-5.4,98.8-0.2,158.1c5.2,59.3,15,114.6,27.6,155.7c5.7,18.4,11.9,33.5,17.9,43.8
	c5.6,9.5,11,14.7,15.3,14.7c0.1,0,0.3,0,0.4,0c6.7-0.6,19.4-18.3,24.7-80.5L394.4,440.1z"/>
</svg>
